D:\ProgramData\miniconda3\envs\yolo_env\lib\site-packages\onnxruntime\capi\onnxruntime_inference_collection.py:54: UserWarning: Specified provider 'CUDAExecutionProvider' is not in available provider names.Available providers: 'CPUExecutionProvider'
  warnings.warn(
ffmpeg version 4.3.1 Copyright (c) 2000-2020 the FFmpeg developers
  built with gcc 10.2.1 (GCC) 20200726
ffmpeg version 4.3.1 Copyright (c) 2000-2020 the FFmpeg developers  configuration: --disable-static --enable-shared --enable-gpl --enable-version3 --enable-sdl2 --enable-fontconfig --enable-gnutls --enable-iconv --enable-libass --enable-libdav1d --enable-libbluray --enable-libfreetype --enable-libmp3lame --enable-libopencore-amrnb --enable-libopencore-amrwb --enable-libopenjpeg --enable-libopus --enable-libshine --enable-libsnappy --enable-libsoxr --enable-libsrt --enable-libtheora --enable-libtwolame --enable-libvpx --enable-libwavpack --enable-libwebp --enable-libx264 --enable-libx265 --enable-libxml2 --enable-libzimg --enable-lzma --enable-zlib --enable-gmp --enable-libvidstab --enable-libvmaf --enable-libvorbis --enable-libvo-amrwbenc --enable-libmysofa --enable-libspeex --enable-libxvid --enable-libaom --enable-libgsm --enable-librav1e --disable-w32threads --enable-libmfx --enable-ffnvcodec --enable-cuda-llvm --enable-cuvid --enable-d3d11va --enable-nvenc --enable-nvdec --enable-dxva2 --enable-avisynth --enable-libopenmpt --enable-amf

  built with gcc 10.2.1 (GCC) 20200726
  configuration: --disable-static --enable-shared --enable-gpl --enable-version3 --enable-sdl2 --enable-fontconfig --enable-gnutls --enable-iconv --enable-libass --enable-libdav1d --enable-libbluray --enable-libfreetype --enable-libmp3lame --enable-libopencore-amrnb --enable-libopencore-amrwb --enable-libopenjpeg --enable-libopus --enable-libshine --enable-libsnappy --enable-libsoxr --enable-libsrt --enable-libtheora --enable-libtwolame --enable-libvpx --enable-libwavpack --enable-libwebp --enable-libx264 --enable-libx265 --enable-libxml2 --enable-libzimg --enable-lzma --enable-zlib --enable-gmp --enable-libvidstab --enable-libvmaf --enable-libvorbis --enable-libvo-amrwbenc --enable-libmysofa --enable-libspeex --enable-libxvid --enable-libaom --enable-libgsm --enable-librav1e --disable-w32threads --enable-libmfx --enable-ffnvcodec --enable-cuda-llvm --enable-cuvid --enable-d3d11va --enable-nvenc --enable-nvdec --enable-dxva2 --enable-avisynth --enable-libopenmpt --enable-amf
  libavutil      56. 51.100 / 56. 51.100
  libavutil      56. 51.100 / 56. 51.100
  libavcodec     58. 91.100 / 58. 91.100  libavcodec     58. 91.100 / 58. 91.100

  libavformat    58. 45.100 / 58. 45.100
  libavdevice    58. 10.100 / 58. 10.100
  libavfilter     7. 85.100 /  7. 85.100
  libswscale      5.  7.100 /  5.  7.100
  libswresample   3.  7.100 /  3.  7.100
  libpostproc    55.  7.100 / 55.  7.100  libavformat    58. 45.100 / 58. 45.100

  libavdevice    58. 10.100 / 58. 10.100
  libavfilter     7. 85.100 /  7. 85.100
  libswscale      5.  7.100 /  5.  7.100
  libswresample   3.  7.100 /  3.  7.100
  libpostproc    55.  7.100 / 55.  7.100
Input #0, rawvideo, from 'pipe:':
  Duration: N/A, start: 0.000000, bitrate: 117964 kb/s
    Stream #0:0: Video: rawvideo (BGR[24] / 0x18524742), bgr24, 640x320, 117964 kb/s, 24 tbr, 24 tbn, 24 tbc
Input #0, rawvideo, from 'pipe:':
  Duration: N/A, start: 0.000000, bitrate: 117964 kb/s
    Stream #0:0: Video: rawvideo (BGR[24] / 0x18524742), bgr24, 640x320, 117964 kb/s, 24 tbr, 24 tbn, 24 tbc
Stream mapping:
  Stream #0:0 -> #0:0 (rawvideo (native) -> h264 (libx264))
Stream mapping:
  Stream #0:0 -> #0:0 (rawvideo (native) -> h264 (libx264))
[libx264 @ 0000024f88e8a880] using cpu capabilities: MMX2 SSE2Fast SSSE3 SSE4.2 AVX FMA3 BMI2 AVX2
[libx264 @ 0000027b6bffa880] using cpu capabilities: MMX2 SSE2Fast SSSE3 SSE4.2 AVX FMA3 BMI2 AVX2
[libx264 @ 0000024f88e8a880] profile Constrained Baseline, level 2.2, 4:2:0, 8-bit
[libx264 @ 0000027b6bffa880] profile Constrained Baseline, level 2.2, 4:2:0, 8-bit
[libx264 @ 0000024f88e8a880] 264 - core 161 - H.264/MPEG-4 AVC codec - Copyleft 2003-2020 - http://www.videolan.org/x264.html - options: cabac=0 ref=1 deblock=0:0:0 analyse=0:0 me=dia subme=0 psy=1 psy_rd=1.00:0.00 mixed_ref=0 me_range=16 chroma_me=1 trellis=0 8x8dct=0 cqm=0 deadzone=21,11 fast_pskip=1 chroma_qp_offset=0 threads=6 lookahead_threads=1 sliced_threads=0 nr=0 decimate=1 interlaced=0 bluray_compat=0 constrained_intra=0 bframes=0 weightp=0 keyint=24 keyint_min=2 scenecut=0 intra_refresh=0 rc=crf mbtree=0 crf=32.0 qcomp=0.60 qpmin=0 qpmax=69 qpstep=4 ip_ratio=1.40 aq=0
[libx264 @ 0000027b6bffa880] 264 - core 161 - H.264/MPEG-4 AVC codec - Copyleft 2003-2020 - http://www.videolan.org/x264.html - options: cabac=0 ref=1 deblock=0:0:0 analyse=0:0 me=dia subme=0 psy=1 psy_rd=1.00:0.00 mixed_ref=0 me_range=16 chroma_me=1 trellis=0 8x8dct=0 cqm=0 deadzone=21,11 fast_pskip=1 chroma_qp_offset=0 threads=6 lookahead_threads=1 sliced_threads=0 nr=0 decimate=1 interlaced=0 bluray_compat=0 constrained_intra=0 bframes=0 weightp=0 keyint=24 keyint_min=2 scenecut=0 intra_refresh=0 rc=crf mbtree=0 crf=32.0 qcomp=0.60 qpmin=0 qpmax=69 qpstep=4 ip_ratio=1.40 aq=0
Output #0, flv, to 'rtmp://192.168.2.241:11935/stream/live/dec_onnx0101?sign=41db35390ddad33f83944f44b8b75ded':
  Metadata:
Output #0, flv, to 'rtmp://192.168.2.241:11935/stream/live/ori_onnx0101?sign=41db35390ddad33f83944f44b8b75ded':
  Metadata:
    encoder         :     encoder         : Lavf58.45.100Lavf58.45.10
0
    Stream #0:0    Stream #0:: Video: h264 (libx264) ([7][0][0][0] / 0x0007), yuv420p, 640x320, q=-1--1, 1200 kb/s0, : Video: h264 (libx264) ([7][0][0][0] / 0x0007), yuv420p, 640x320, q=-1--1, 1200 kb/s, 24 fps, 1k tbn, 24 tbc
24 fps,     Metadata:
1k tbn,       encoder         : 24 tbc
    Metadata:
Lavc58.91.100 libx264      encoder         : 
Lavc58.91.100 libx264
    Side data:
    Side data:
      cpb:       cpb: bitrate max/min/avg: 0/0/1200000 buffer size: 0 vbv_delay: N/A
bitrate max/min/avg: 0/0/1200000 buffer size: 0 vbv_delay: N/A
frame=    4 fps=0.0 q=0.0 size=       0kB time=00:00:00.00 bitrate=N/A speed=   0x    frame=    5 fps=0.0 q=0.0 size=       0kB time=00:00:00.00 bitrate=N/A speed=   0x    frame=    8 fps=7.3 q=33.0 size=      20kB time=00:00:00.00 bitrate=167312.0kbits/s speed=0.000908x    frame=    9 fps=8.2 q=32.0 size=      17kB time=00:00:00.04 bitrate=3281.7kbits/s speed=0.039x    frame=   12 fps=7.3 q=34.0 size=      21kB time=00:00:00.16 bitrate=1047.0kbits/s speed=0.102x    frame=   13 fps=7.9 q=32.0 size=      19kB time=00:00:00.20 bitrate= 763.9kbits/s speed=0.127x    frame=   16 fps=7.0 q=34.0 size=      39kB time=00:00:00.33 bitrate= 951.6kbits/s speed=0.147x    frame=   17 fps=7.5 q=32.0 size=      29kB time=00:00:00.37 bitrate= 640.2kbits/s speed=0.165x    frame=   20 fps=7.1 q=35.0 size=      54kB time=00:00:00.50 bitrate= 887.1kbits/s speed=0.178x    frame=   21 fps=7.5 q=33.0 size=      41kB time=00:00:00.54 bitrate= 614.7kbits/s speed=0.193x    frame=   24 fps=7.2 q=34.0 size=      69kB time=00:00:00.66 bitrate= 849.2kbits/s speed=0.199x    frame=   25 fps=7.5 q=32.0 size=      53kB time=00:00:00.70 bitrate= 607.5kbits/s speed=0.211x    frame=   28 fps=7.0 q=36.0 size=      89kB time=00:00:00.83 bitrate= 879.1kbits/s speed=0.21x    frame=   29 fps=7.3 q=34.0 size=      64kB time=00:00:00.87 bitrate= 593.9kbits/s speed=0.22x    frame=   32 fps=7.1 q=34.0 size=     119kB time=00:00:01.00 bitrate= 975.5kbits/s speed=0.221x    frame=   33 fps=7.3 q=32.0 size=      87kB time=00:00:01.04 bitrate= 685.7kbits/s speed=0.23x    frame=   36 fps=7.0 q=34.0 size=     134kB time=00:00:01.16 bitrate= 943.2kbits/s speed=0.229x    frame=   37 fps=7.2 q=32.0 size=      96kB time=00:00:01.20 bitrate= 652.5kbits/s speed=0.237x    frame=   40 fps=7.1 q=34.0 size=     154kB time=00:00:01.33 bitrate= 942.6kbits/s speed=0.236x    frame=   41 fps=7.2 q=32.0 size=     107kB time=00:00:01.37 bitrate= 638.8kbits/s speed=0.243x    frame=   44 fps=7.1 q=35.0 size=     170kB time=00:00:01.50 bitrate= 928.5kbits/s speed=0.242x    frame=   45 fps=7.3 q=32.0 size=     118kB time=00:00:01.54 bitrate= 629.0kbits/s speed=0.249x    frame=   48 fps=7.1 q=34.0 size=     187kB time=00:00:01.66 bitrate= 916.2kbits/s speed=0.247x    frame=   49 fps=7.3 q=32.0 size=     130kB time=00:00:01.70 bitrate= 622.5kbits/s speed=0.253x    frame=   52 fps=7.1 q=36.0 size=     204kB time=00:00:01.83 bitrate= 913.1kbits/s speed=0.249x    frame=   53 fps=7.2 q=34.0 size=     141kB time=00:00:01.87 bitrate= 615.3kbits/s speed=0.254x    frame=   56 fps=7.0 q=34.0 size=     235kB time=00:00:02.00 bitrate= 963.8kbits/s speed=0.251x    frame=   57 fps=7.1 q=32.0 size=     164kB time=00:00:02.04 bitrate= 658.1kbits/s speed=0.256x    frame=   59 fps=6.8 q=35.0 size=     246kB time=00:00:02.12 bitrate= 949.0kbits/s speed=0.245x    frame=   60 fps=6.9 q=32.0 size=     170kB time=00:00:02.16 bitrate= 642.4kbits/s speed=0.25x    frame=   62 fps=6.7 q=34.0 size=     259kB time=00:00:02.25 bitrate= 941.6kbits/s speed=0.242x    frame=   63 fps=6.8 q=32.0 size=     179kB time=00:00:02.29 bitrate= 640.7kbits/s speed=0.247x    frame=   65 fps=6.6 q=35.0 size=     273kB time=00:00:02.37 bitrate= 940.8kbits/s speed=0.24x    frame=   66 fps=6.7 q=32.0 size=     189kB time=00:00:02.41 bitrate= 641.0kbits/s speed=0.244x    frame=   69 fps=6.5 q=34.0 size=     291kB time=00:00:02.54 bitrate= 936.8kbits/s speed=0.24x    frame=   70 fps=6.6 q=32.0 size=     203kB time=00:00:02.58 bitrate= 642.8kbits/s speed=0.244x    frame=   73 fps=6.5 q=34.0 size=     311kB time=00:00:02.70 bitrate= 939.9kbits/s speed=0.241x    frame=   74 fps=6.6 q=32.0 size=     216kB time=00:00:02.75 bitrate= 643.1kbits/s speed=0.245x    frame=   75 fps=6.3 q=31.0 size=     320kB time=00:00:02.79 bitrate= 938.3kbits/s speed=0.236x    frame=   76 fps=6.4 q=35.0 size=     222kB time=00:00:02.83 bitrate= 640.6kbits/s speed=0.24x    frame=   79 fps=6.3 q=34.0 size=     337kB time=00:00:02.95 bitrate= 934.2kbits/s speed=0.237x    frame=   80 fps=6.4 q=32.0 size=     248kB time=00:00:03.00 bitrate= 675.7kbits/s speed=0.241x    frame=   83 fps=6.3 q=35.0 size=     369kB time=00:00:03.12 bitrate= 966.7kbits/s speed=0.237x    frame=   84 fps=6.4 q=32.0 size=     254kB time=00:00:03.16 bitrate= 657.9kbits/s speed=0.24x    frame=   87 fps=6.3 q=35.0 size=     385kB time=00:00:03.29 bitrate= 958.2kbits/s speed=0.239x    frame=   88 fps=6.4 q=32.0 size=     267kB time=00:00:03.33 bitrate= 655.2kbits/s speed=0.242x    frame=   90 fps=6.2 q=35.0 size=     398kB time=00:00:03.41 bitrate= 954.4kbits/s speed=0.236x    frame=   91 fps=6.3 q=30.0 size=     275kB time=00:00:03.45 bitrate= 651.8kbits/s speed=0.239x    frame=   93 fps=6.2 q=35.0 size=     412kB time=00:00:03.54 bitrate= 951.8kbits/s speed=0.236x    frame=   94 fps=6.3 q=32.0 size=     285kB time=00:00:03.58 bitrate= 651.0kbits/s speed=0.239x    frame=   97 fps=6.2 q=34.0 size=     430kB time=00:00:03.70 bitrate= 949.0kbits/s speed=0.238x    frame=   98 fps=6.3 q=32.0 size=     297kB time=00:00:03.75 bitrate= 648.9kbits/s speed=0.24x    frame=  101 fps=6.2 q=36.0 size=     448kB time=00:00:03.87 bitrate= 947.1kbits/s speed=0.24x    frame=  102 fps=6.3 q=33.0 size=     309kB time=00:00:03.91 bitrate= 646.1kbits/s speed=0.242x    frame=  105 fps=6.3 q=35.0 size=     480kB time=00:00:04.04 bitrate= 972.7kbits/s speed=0.241x    frame=  106 fps=6.3 q=33.0 size=     333kB time=00:00:04.08 bitrate= 668.3kbits/s speed=0.243x    frame=  108 fps=6.2 q=35.0 size=     491kB time=00:00:04.16 bitrate= 964.5kbits/s speed=0.241x    frame=  109 fps=6.3 q=33.0 size=     340kB time=00:00:04.20 bitrate= 661.9kbits/s speed=0.243x    frame=  112 fps=6.2 q=35.0 size=     512kB time=00:00:04.33 bitrate= 967.3kbits/s speed=0.241x    frame=  113 fps=6.3 q=33.0 size=     351kB time=00:00:04.37 bitrate= 657.2kbits/s speed=0.243x    frame=  115 fps=6.2 q=33.0 size=     526kB time=00:00:04.45 bitrate= 965.9kbits/s speed=0.239x    frame=  116 fps=6.2 q=33.0 size=     360kB time=00:00:04.50 bitrate= 655.0kbits/s speed=0.242x    frame=  119 fps=6.2 q=35.0 size=     545kB time=00:00:04.62 bitrate= 965.1kbits/s speed=0.239x    frame=  120 fps=6.2 q=32.0 size=     372kB time=00:00:04.66 bitrate= 652.0kbits/s speed=0.242x    frame=  121 fps=6.0 q=35.0 size=     556kB time=00:00:04.70 bitrate= 966.4kbits/s speed=0.234x    frame=  122 fps=6.1 q=32.0 size=     377kB time=00:00:04.75 bitrate= 650.8kbits/s speed=0.236x    frame=  124 fps=6.0 q=37.0 size=     572kB time=00:00:04.83 bitrate= 969.2kbits/s speed=0.233x    frame=  125 fps=6.0 q=34.0 size=     386kB time=00:00:04.87 bitrate= 648.8kbits/s speed=0.235x    frame=  126 fps=5.9 q=36.0 size=     581kB time=00:00:04.91 bitrate= 968.1kbits/s speed=0.231x    frame=  127 fps=6.0 q=31.0 size=     392kB time=00:00:04.95 bitrate= 647.4kbits/s speed=0.233x    frame=  130 fps=6.0 q=35.0 size=     612kB time=00:00:05.08 bitrate= 986.5kbits/s speed=0.233x    frame=  131 fps=6.0 q=32.0 size=     413kB time=00:00:05.12 bitrate= 659.9kbits/s speed=0.235x    frame=  134 fps=6.0 q=34.0 size=     631kB time=00:00:05.25 bitrate= 984.3kbits/s speed=0.234x    frame=  135 fps=6.0 q=32.0 size=     424kB time=00:00:05.29 bitrate= 655.6kbits/s speed=0.236x    frame=  138 fps=6.0 q=34.0 size=     649kB time=00:00:05.41 bitrate= 981.1kbits/s speed=0.235x    frame=  139 fps=6.0 q=31.0 size=     435kB time=00:00:05.45 bitrate= 653.5kbits/s speed=0.237x    frame=  142 fps=6.0 q=34.0 size=     667kB time=00:00:05.58 bitrate= 978.2kbits/s speed=0.237x    frame=  143 fps=6.1 q=31.0 size=     447kB time=00:00:05.62 bitrate= 650.6kbits/s speed=0.239x    frame=  146 fps=6.0 q=33.0 size=     683kB time=00:00:05.75 bitrate= 973.0kbits/s speed=0.238x    frame=  147 fps=6.1 q=29.0 size=     458kB time=00:00:05.79 bitrate= 647.2kbits/s speed=0.24x    frame=  150 fps=6.1 q=34.0 size=     699kB time=00:00:05.91 bitrate= 968.0kbits/s speed=0.239x    frame=  151 fps=6.1 q=31.0 size=     469kB time=00:00:05.95 bitrate= 644.6kbits/s speed=0.241x    frame=  154 fps=6.1 q=35.0 size=     728kB time=00:00:06.08 bitrate= 979.8kbits/s speed=0.24x    frame=  155 fps=6.1 q=32.0 size=     488kB time=00:00:06.12 bitrate= 652.4kbits/s speed=0.241x    frame=  158 fps=6.1 q=34.0 size=     744kB time=00:00:06.25 bitrate= 974.5kbits/s speed=0.24x    frame=  159 fps=6.1 q=31.0 size=     498kB time=00:00:06.29 bitrate= 648.9kbits/s speed=0.241x    frame=  162 fps=6.1 q=34.0 size=     761kB time=00:00:06.41 bitrate= 971.1kbits/s speed=0.24x    frame=  163 fps=6.1 q=30.0 size=     509kB time=00:00:06.45 bitrate= 646.0kbits/s speed=0.242x    frame=  165 fps=6.1 q=34.0 size=     775kB time=00:00:06.54 bitrate= 970.8kbits/s speed=0.241x    frame=  166 fps=6.1 q=31.0 size=     518kB time=00:00:06.58 bitrate= 644.2kbits/s speed=0.242x    frame=  169 fps=6.1 q=34.0 size=     794kB time=00:00:06.70 bitrate= 969.0kbits/s speed=0.241x    frame=  170 fps=6.1 q=32.0 size=     528kB time=00:00:06.75 bitrate= 640.4kbits/s speed=0.243x    frame=  173 fps=6.1 q=35.0 size=     811kB time=00:00:06.87 bitrate= 966.1kbits/s speed=0.242x    frame=  174 fps=6.1 q=33.0 size=     540kB time=00:00:06.91 bitrate= 639.3kbits/s speed=0.244x    frame=  177 fps=6.1 q=34.0 size=     841kB time=00:00:07.04 bitrate= 977.9kbits/s speed=0.242x    frame=  178 fps=6.1 q=31.0 size=     560kB time=00:00:07.08 bitrate= 648.0kbits/s speed=0.244x    frame=  181 fps=6.1 q=34.0 size=     857kB time=00:00:07.20 bitrate= 973.5kbits/s speed=0.243x    frame=  182 fps=6.1 q=32.0 size=     570kB time=00:00:07.25 bitrate= 643.7kbits/s speed=0.244x    frame=  185 fps=6.1 q=35.0 size=     872kB time=00:00:07.37 bitrate= 969.0kbits/s speed=0.242x    frame=  186 fps=6.1 q=32.0 size=     581kB time=00:00:07.41 bitrate= 641.8kbits/s speed=0.243x    frame=  187 fps=6.0 q=33.0 size=     881kB time=00:00:07.45 bitrate= 967.3kbits/s speed=0.24x    frame=  188 fps=6.1 q=32.0 size=     587kB time=00:00:07.50 bitrate= 640.7kbits/s speed=0.242x    frame=  189 fps=6.0 q=34.0 size=     890kB time=00:00:07.54 bitrate= 966.9kbits/s speed=0.238x    frame=  190 fps=6.0 q=32.0 size=     592kB time=00:00:07.58 bitrate= 639.1kbits/s speed=0.239x    frame=  191 fps=5.9 q=35.0 size=     899kB time=00:00:07.62 bitrate= 965.8kbits/s speed=0.235x    frame=  192 fps=5.9 q=32.0 size=     597kB time=00:00:07.66 bitrate= 638.2kbits/s speed=0.236x    frame=  194 fps=5.9 q=35.0 size=     914kB time=00:00:07.75 bitrate= 966.1kbits/s speed=0.235x    frame=  195 fps=5.9 q=29.0 size=     605kB time=00:00:07.79 bitrate= 636.4kbits/s speed=0.236x    frame=  197 fps=5.9 q=36.0 size=     930kB time=00:00:07.87 bitrate= 967.5kbits/s speed=0.234x    frame=  198 fps=5.9 q=33.0 size=     614kB time=00:00:07.91 bitrate= 635.3kbits/s speed=0.235x    frame=  200 fps=5.9 q=35.0 size=     960kB time=00:00:08.00 bitrate= 983.1kbits/s speed=0.234x    frame=  201 fps=5.9 q=32.0 size=     637kB time=00:00:08.04 bitrate= 648.8kbits/s speed=0.235x    frame=  202 fps=5.8 q=34.0 size=     968kB time=00:00:08.08 bitrate= 980.5kbits/s speed=0.233x    frame=  203 fps=5.9 q=33.0 size=     641kB time=00:00:08.12 bitrate= 646.2kbits/s speed=0.234x    frame=  204 fps=5.8 q=34.0 size=     976kB time=00:00:08.16 bitrate= 978.5kbits/s speed=0.231x    frame=  205 fps=5.8 q=32.0 size=     646kB time=00:00:08.20 bitrate= 644.6kbits/s speed=0.232x    frame=  206 fps=5.7 q=34.0 size=     986kB time=00:00:08.25 bitrate= 978.8kbits/s speed=0.229x    frame=  207 fps=5.7 q=32.0 size=     652kB time=00:00:08.29 bitrate= 644.4kbits/s speed=0.23x    frame=  208 fps=5.7 q=34.0 size=     996kB time=00:00:08.33 bitrate= 978.5kbits/s speed=0.228x    frame=  209 fps=5.7 q=32.0 size=     657kB time=00:00:08.37 bitrate= 642.8kbits/s speed=0.229x    frame=  211 fps=5.7 q=34.0 size=    1008kB time=00:00:08.45 bitrate= 976.6kbits/s speed=0.227x    frame=  212 fps=5.7 q=32.0 size=     666kB time=00:00:08.50 bitrate= 641.9kbits/s speed=0.228x    frame=  213 fps=5.6 q=34.0 size=    1019kB time=00:00:08.54 bitrate= 977.3kbits/s speed=0.226x    frame=  214 fps=5.7 q=32.0 size=     673kB time=00:00:08.58 bitrate= 641.9kbits/s speed=0.227x    frame=  216 fps=5.6 q=34.0 size=    1031kB time=00:00:08.66 bitrate= 974.4kbits/s speed=0.226x    frame=  217 fps=5.6 q=32.0 size=     682kB time=00:00:08.70 bitrate= 641.2kbits/s speed=0.227x    frame=  220 fps=5.6 q=36.0 size=    1052kB time=00:00:08.83 bitrate= 975.3kbits/s speed=0.226x    frame=  221 fps=5.7 q=34.0 size=     694kB time=00:00:08.87 bitrate= 640.7kbits/s speed=0.227x    frame=  223 fps=5.6 q=33.0 size=    1065kB time=00:00:08.95 bitrate= 974.1kbits/s speed=0.226x    frame=  224 fps=5.7 q=32.0 size=     718kB time=00:00:09.00 bitrate= 653.0kbits/s speed=0.227x    frame=  226 fps=5.6 q=34.0 size=    1092kB time=00:00:09.08 bitrate= 984.4kbits/s speed=0.226x    frame=  227 fps=5.6 q=32.0 size=     722kB time=00:00:09.12 bitrate= 648.3kbits/s speed=0.227x    frame=  229 fps=5.6 q=34.0 size=    1104kB time=00:00:09.20 bitrate= 982.1kbits/s speed=0.226x    frame=  230 fps=5.6 q=32.0 size=     729kB time=00:00:09.25 bitrate= 645.9kbits/s speed=0.227x    frame=  233 fps=5.6 q=34.0 size=    1123kB time=00:00:09.37 bitrate= 981.4kbits/s speed=0.225x    frame=  234 fps=5.6 q=31.0 size=     740kB time=00:00:09.41 bitrate= 643.8kbits/s speed=0.226x    frame=  234 fps=5.6 q=34.0 size=    1128kB time=00:00:09.41 bitrate= 980.8kbits/s speed=0.223x    frame=  235 fps=5.6 q=31.0 size=     743kB time=00:00:09.45 bitrate= 643.6kbits/s speed=0.224x    frame=  236 fps=5.5 q=34.0 size=    1137kB time=00:00:09.50 bitrate= 980.5kbits/s speed=0.222x    frame=  237 fps=5.5 q=32.0 size=     748kB time=00:00:09.54 bitrate= 642.0kbits/s speed=0.223x    frame=  239 fps=5.5 q=35.0 size=    1150kB time=00:00:09.62 bitrate= 978.8kbits/s speed=0.222x    frame=  240 fps=5.5 q=32.0 size=     756kB time=00:00:09.66 bitrate= 640.5kbits/s speed=0.223x    frame=  243 fps=5.5 q=31.0 size=    1168kB time=00:00:09.79 bitrate= 977.4kbits/s speed=0.222x    frame=  244 fps=5.5 q=35.0 size=     766kB time=00:00:09.83 bitrate= 638.4kbits/s speed=0.223x    frame=  247 fps=5.5 q=34.0 size=    1187kB time=00:00:09.95 bitrate= 976.3kbits/s speed=0.223x    frame=  248 fps=5.5 q=32.0 size=     792kB time=00:00:10.00 bitrate= 648.4kbits/s speed=0.224x    frame=  250 fps=5.5 q=34.0 size=    1214kB time=00:00:10.08 bitrate= 985.9kbits/s speed=0.222x    frame=  251 fps=5.5 q=32.0 size=     795kB time=00:00:10.12 bitrate= 643.5kbits/s speed=0.223x    frame=  252 fps=5.5 q=34.0 size=    1220kB time=00:00:10.16 bitrate= 983.1kbits/s speed=0.221x    frame=  253 fps=5.5 q=33.0 size=     800kB time=00:00:10.20 bitrate= 642.1kbits/s speed=0.222x    frame=  255 fps=5.5 q=34.0 size=    1234kB time=00:00:10.29 bitrate= 982.3kbits/s speed=0.221x    frame=  256 fps=5.5 q=32.0 size=     808kB time=00:00:10.33 bitrate= 640.8kbits/s speed=0.222x    frame=  257 fps=5.5 q=35.0 size=    1243kB time=00:00:10.37 bitrate= 981.3kbits/s speed=0.22x    frame=  258 fps=5.5 q=32.0 size=     814kB time=00:00:10.41 bitrate= 640.1kbits/s speed=0.221x    frame=  260 fps=5.4 q=34.0 size=    1259kB time=00:00:10.50 bitrate= 982.1kbits/s speed=0.219x    frame=  261 fps=5.4 q=31.0 size=     823kB time=00:00:10.54 bitrate= 639.5kbits/s speed=0.22x    frame=  264 fps=5.4 q=34.0 size=    1277kB time=00:00:10.66 bitrate= 980.3kbits/s speed=0.22x    frame=  265 fps=5.5 q=31.0 size=     834kB time=00:00:10.70 bitrate= 638.3kbits/s speed=0.221x    frame=  267 fps=5.4 q=31.0 size=    1291kB time=00:00:10.79 bitrate= 979.7kbits/s speed=0.22x    frame=  268 fps=5.5 q=35.0 size=     843kB time=00:00:10.83 bitrate= 637.2kbits/s speed=0.22x    frame=  269 fps=5.4 q=35.0 size=    1301kB time=00:00:10.87 bitrate= 979.9kbits/s speed=0.218x    frame=  270 fps=5.4 q=32.0 size=     849kB time=00:00:10.91 bitrate= 637.0kbits/s speed=0.219x    frame=  270 fps=5.4 q=34.0 size=    1305kB time=00:00:10.91 bitrate= 979.3kbits/s speed=0.217x    frame=  271 fps=5.4 q=31.0 size=     852kB time=00:00:10.95 bitrate= 637.1kbits/s speed=0.218x    frame=  273 fps=5.4 q=33.0 size=    1332kB time=00:00:11.04 bitrate= 987.8kbits/s speed=0.217x    frame=  274 fps=5.4 q=31.0 size=     871kB time=00:00:11.08 bitrate= 643.9kbits/s speed=0.217x    frame=  277 fps=5.4 q=34.0 size=    1345kB time=00:00:11.20 bitrate= 982.9kbits/s speed=0.217x    frame=  278 fps=5.4 q=31.0 size=     880kB time=00:00:11.25 bitrate= 640.5kbits/s speed=0.218x    frame=  281 fps=5.4 q=34.0 size=    1361kB time=00:00:11.37 bitrate= 979.9kbits/s speed=0.218x    frame=  282 fps=5.4 q=32.0 size=     890kB time=00:00:11.41 bitrate= 638.7kbits/s speed=0.219x    frame=  285 fps=5.4 q=35.0 size=    1378kB time=00:00:11.54 bitrate= 978.3kbits/s speed=0.218x    frame=  286 fps=5.4 q=32.0 size=     901kB time=00:00:11.58 bitrate= 637.4kbits/s speed=0.219x    frame=  288 fps=5.4 q=35.0 size=    1391kB time=00:00:11.66 bitrate= 976.8kbits/s speed=0.218x    frame=  289 fps=5.4 q=32.0 size=     910kB time=00:00:11.70 bitrate= 636.8kbits/s speed=0.219x    frame=  291 fps=5.4 q=31.0 size=    1406kB time=00:00:11.79 bitrate= 976.8kbits/s speed=0.218x    frame=  292 fps=5.4 q=35.0 size=     919kB time=00:00:11.83 bitrate= 636.3kbits/s speed=0.218x    frame=  293 fps=5.3 q=36.0 size=    1415kB time=00:00:11.87 bitrate= 976.2kbits/s speed=0.216x    frame=  294 fps=5.4 q=33.0 size=     925kB time=00:00:11.91 bitrate= 635.5kbits/s speed=0.217x    frame=  297 fps=5.3 q=35.0 size=    1451kB time=00:00:12.04 bitrate= 986.8kbits/s speed=0.216x    frame=  298 fps=5.4 q=32.0 size=     949kB time=00:00:12.08 bitrate= 643.1kbits/s speed=0.217x    frame=  299 fps=5.3 q=35.0 size=    1458kB time=00:00:12.12 bitrate= 985.3kbits/s speed=0.216x    frame=  301 fps=5.3 q=32.0 size=     956kB time=00:00:12.20 bitrate= 641.6kbits/s speed=0.216x    frame=  302 fps=5.3 q=34.0 size=    1472kB time=00:00:12.25 bitrate= 984.6kbits/s speed=0.215x    frame=  304 fps=5.3 q=33.0 size=     965kB time=00:00:12.33 bitrate= 640.9kbits/s speed=0.216x    frame=  305 fps=5.3 q=35.0 size=    1487kB time=00:00:12.37 bitrate= 984.3kbits/s speed=0.215x    frame=  307 fps=5.3 q=31.0 size=     974kB time=00:00:12.45 bitrate= 640.2kbits/s speed=0.216x    frame=  308 fps=5.3 q=34.0 size=    1501kB time=00:00:12.50 bitrate= 983.8kbits/s speed=0.215x    frame=  310 fps=5.3 q=33.0 size=     982kB time=00:00:12.58 bitrate= 639.5kbits/s speed=0.216x    frame=  312 fps=5.3 q=35.0 size=    1519kB time=00:00:12.66 bitrate= 982.2kbits/s speed=0.216x    frame=  314 fps=5.3 q=33.0 size=     995kB time=00:00:12.75 bitrate= 639.0kbits/s speed=0.216x    frame=  316 fps=5.3 q=37.0 size=    1539kB time=00:00:12.83 bitrate= 982.1kbits/s speed=0.216x    frame=  318 fps=5.3 q=33.0 size=    1007kB time=00:00:12.91 bitrate= 638.6kbits/s speed=0.217x    frame=  320 fps=5.3 q=35.0 size=    1570kB time=00:00:13.00 bitrate= 989.2kbits/s speed=0.217x    frame=  322 fps=5.4 q=33.0 size=    1031kB time=00:00:13.08 bitrate= 645.5kbits/s speed=0.218x    frame=  324 fps=5.4 q=34.0 size=    1584kB time=00:00:13.16 bitrate= 985.3kbits/s speed=0.217x    frame=  326 fps=5.4 q=32.0 size=    1040kB time=00:00:13.25 bitrate= 643.2kbits/s speed=0.218x    frame=  328 fps=5.4 q=34.0 size=    1602kB time=00:00:13.33 bitrate= 984.1kbits/s speed=0.218x    frame=  330 fps=5.4 q=32.0 size=    1051kB time=00:00:13.41 bitrate= 641.8kbits/s speed=0.219x    frame=  331 fps=5.4 q=32.0 size=    1614kB time=00:00:13.45 bitrate= 982.4kbits/s speed=0.218x    frame=  334 fps=5.4 q=31.0 size=    1063kB time=00:00:13.58 bitrate= 640.8kbits/s speed=0.219x    frame=  335 fps=5.4 q=34.0 size=    1631kB time=00:00:13.62 bitrate= 980.4kbits/s speed=0.219x    frame=  338 fps=5.4 q=30.0 size=    1073kB time=00:00:13.75 bitrate= 639.4kbits/s speed=0.22x    frame=  339 fps=5.4 q=31.0 size=    1647kB time=00:00:13.79 bitrate= 978.2kbits/s speed=0.219x    frame=  342 fps=5.4 q=32.0 size=    1083kB time=00:00:13.91 bitrate= 637.5kbits/s speed=0.22x    frame=  343 fps=5.4 q=32.0 size=    1662kB time=00:00:13.95 bitrate= 975.5kbits/s speed=0.22x    frame=  346 fps=5.4 q=31.0 size=    1104kB time=00:00:14.08 bitrate= 642.0kbits/s speed=0.221x    frame=  346 fps=5.4 q=33.0 size=    1685kB time=00:00:14.08 bitrate= 979.8kbits/s speed=0.22x    frame=  349 fps=5.4 q=31.0 size=    1109kB time=00:00:14.20 bitrate= 639.6kbits/s speed=0.221x    frame=  350 fps=5.4 q=34.0 size=    1698kB time=00:00:14.25 bitrate= 976.0kbits/s speed=0.221x    frame=  353 fps=5.4 q=31.0 size=    1120kB time=00:00:14.37 bitrate= 638.1kbits/s speed=0.222x    frame=  354 fps=5.4 q=34.0 size=    1713kB time=00:00:14.41 bitrate= 973.3kbits/s speed=0.221x    frame=  356 fps=5.4 q=31.0 size=    1128kB time=00:00:14.50 bitrate= 637.1kbits/s speed=0.221x    frame=  356 fps=5.4 q=34.0 size=    1721kB time=00:00:14.50 bitrate= 972.4kbits/s speed=0.22x    frame=  359 fps=5.4 q=32.0 size=    1136kB time=00:00:14.62 bitrate= 636.5kbits/s speed=0.221x    frame=  359 fps=5.4 q=34.0 size=    1734kB time=00:00:14.62 bitrate= 971.3kbits/s speed=0.22x    frame=  361 fps=5.4 q=32.0 size=    1141kB time=00:00:14.70 bitrate= 635.6kbits/s speed=0.22x    frame=  361 fps=5.4 q=34.0 size=    1742kB time=00:00:14.70 bitrate= 970.1kbits/s speed=0.219x    frame=  363 fps=5.4 q=29.0 size=    1146kB time=00:00:14.79 bitrate= 634.7kbits/s speed=0.22x    frame=  364 fps=5.4 q=36.0 size=    1754kB time=00:00:14.83 bitrate= 968.6kbits/s speed=0.219x    frame=  367 fps=5.4 q=31.0 size=    1156kB time=00:00:14.95 bitrate= 633.1kbits/s speed=0.22x    frame=  367 fps=5.4 q=33.0 size=    1767kB time=00:00:14.95 bitrate= 967.5kbits/s speed=0.22x    frame=  370 fps=5.4 q=32.0 size=    1176kB time=00:00:15.08 bitrate= 638.5kbits/s speed=0.22x    frame=  370 fps=5.4 q=34.0 size=    1791kB time=00:00:15.08 bitrate= 972.8kbits/s speed=0.22x    frame=  374 fps=5.4 q=32.0 size=    1185kB time=00:00:15.25 bitrate= 636.5kbits/s speed=0.221x    frame=  374 fps=5.4 q=34.0 size=    1806kB time=00:00:15.25 bitrate= 970.3kbits/s speed=0.22x    frame=  378 fps=5.4 q=32.0 size=    1196kB time=00:00:15.41 bitrate= 635.4kbits/s speed=0.221x    frame=  378 fps=5.4 q=34.0 size=    1823kB time=00:00:15.41 bitrate= 968.5kbits/s speed=0.22x    frame=  381 fps=5.4 q=32.0 size=    1204kB time=00:00:15.54 bitrate= 634.8kbits/s speed=0.221x    frame=  381 fps=5.4 q=33.0 size=    1835kB time=00:00:15.54 bitrate= 967.4kbits/s speed=0.22x    frame=  384 fps=5.4 q=32.0 size=    1213kB time=00:00:15.66 bitrate= 634.4kbits/s speed=0.221x    frame=  384 fps=5.4 q=33.0 size=    1846kB time=00:00:15.66 bitrate= 965.0kbits/s speed=0.22x    frame=  386 fps=5.4 q=31.0 size=    1219kB time=00:00:15.75 bitrate= 634.2kbits/s speed=0.22x    frame=  386 fps=5.4 q=33.0 size=    1854kB time=00:00:15.75 bitrate= 964.2kbits/s speed=0.219x    frame=  389 fps=5.4 q=33.0 size=    1227kB time=00:00:15.87 bitrate= 633.3kbits/s speed=0.22x    frame=  389 fps=5.4 q=35.0 size=    1865kB time=00:00:15.87 bitrate= 962.5kbits/s speed=0.219x    frame=  392 fps=5.4 q=30.0 size=    1250kB time=00:00:16.00 bitrate= 640.1kbits/s speed=0.22x    frame=  392 fps=5.4 q=33.0 size=    1889kB time=00:00:16.00 bitrate= 967.3kbits/s speed=0.219x    frame=  394 fps=5.4 q=30.0 size=    1252kB time=00:00:16.08 bitrate= 637.9kbits/s speed=0.219x    frame=  395 fps=5.4 q=33.0 size=    1898kB time=00:00:16.12 bitrate= 964.4kbits/s speed=0.219x    frame=  397 fps=5.4 q=29.0 size=    1257kB time=00:00:16.20 bitrate= 635.5kbits/s speed=0.219x    frame=  398 fps=5.4 q=33.0 size=    1907kB time=00:00:16.25 bitrate= 961.3kbits/s speed=0.219x    frame=  400 fps=5.4 q=29.0 size=    1263kB time=00:00:16.33 bitrate= 633.6kbits/s speed=0.219x    frame=  401 fps=5.4 q=31.0 size=    1916kB time=00:00:16.37 bitrate= 958.5kbits/s speed=0.219x    frame=  403 fps=5.4 q=29.0 size=    1269kB time=00:00:16.45 bitrate= 631.4kbits/s speed=0.219x    frame=  404 fps=5.4 q=32.0 size=    1926kB time=00:00:16.50 bitrate= 956.2kbits/s speed=0.219x    frame=  407 fps=5.4 q=30.0 size=    1278kB time=00:00:16.62 bitrate= 629.5kbits/s speed=0.22x    frame=  407 fps=5.4 q=32.0 size=    1935kB time=00:00:16.62 bitrate= 953.4kbits/s speed=0.219x    frame=  410 fps=5.4 q=31.0 size=    1284kB time=00:00:16.75 bitrate= 627.7kbits/s speed=0.22x    frame=  411 fps=5.4 q=30.0 size=    1948kB time=00:00:16.79 bitrate= 950.2kbits/s speed=0.219x    frame=  414 fps=5.4 q=32.0 size=    1293kB time=00:00:16.91 bitrate= 625.9kbits/s speed=0.22x    frame=  414 fps=5.4 q=33.0 size=    1959kB time=00:00:16.91 bitrate= 948.4kbits/s speed=0.219x    frame=  417 fps=5.4 q=31.0 size=    1313kB time=00:00:17.04 bitrate= 631.0kbits/s speed=0.22x    frame=  418 fps=5.4 q=33.0 size=    1984kB time=00:00:17.08 bitrate= 951.3kbits/s speed=0.22x    frame=  421 fps=5.4 q=31.0 size=    1320kB time=00:00:17.20 bitrate= 628.3kbits/s speed=0.22x    frame=  422 fps=5.4 q=32.0 size=    1995kB time=00:00:17.25 bitrate= 947.6kbits/s speed=0.22x    frame=  424 fps=5.4 q=31.0 size=    1327kB time=00:00:17.33 bitrate= 627.3kbits/s speed=0.22x    frame=  426 fps=5.4 q=32.0 size=    2010kB time=00:00:17.41 bitrate= 945.3kbits/s speed=0.22x    frame=  428 fps=5.4 q=30.0 size=    1339kB time=00:00:17.50 bitrate= 626.6kbits/s speed=0.221x    frame=  430 fps=5.4 q=32.0 size=    2025kB time=00:00:17.58 bitrate= 943.6kbits/s speed=0.22x    frame=  432 fps=5.4 q=30.0 size=    1349kB time=00:00:17.66 bitrate= 625.4kbits/s speed=0.221x    frame=  434 fps=5.4 q=33.0 size=    2038kB time=00:00:17.75 bitrate= 940.7kbits/s speed=0.221x    frame=  436 fps=5.4 q=35.0 size=    1359kB time=00:00:17.83 bitrate= 624.3kbits/s speed=0.221x    frame=  437 fps=5.4 q=34.0 size=    2048kB time=00:00:17.87 bitrate= 938.6kbits/s speed=0.221x    frame=  439 fps=5.4 q=31.0 size=    1366kB time=00:00:17.95 bitrate= 622.9kbits/s speed=0.221x    frame=  440 fps=5.4 q=34.0 size=    2073kB time=00:00:18.00 bitrate= 943.2kbits/s speed=0.221x    frame=  442 fps=5.4 q=31.0 size=    1385kB time=00:00:18.08 bitrate= 627.5kbits/s speed=0.221x    frame=  443 fps=5.4 q=33.0 size=    2079kB time=00:00:18.12 bitrate= 939.8kbits/s speed=0.221x    frame=  445 fps=5.4 q=31.0 size=    1391kB time=00:00:18.20 bitrate= 625.9kbits/s speed=0.221x    frame=  447 fps=5.4 q=33.0 size=    2091kB time=00:00:18.29 bitrate= 936.5kbits/s speed=0.221x    frame=  449 fps=5.4 q=31.0 size=    1401kB time=00:00:18.37 bitrate= 624.7kbits/s speed=0.222x    frame=  451 fps=5.4 q=31.0 size=    2106kB time=00:00:18.45 bitrate= 934.7kbits/s speed=0.221x    frame=  452 fps=5.4 q=31.0 size=    1409kB time=00:00:18.50 bitrate= 623.9kbits/s speed=0.222x    frame=  455 fps=5.4 q=35.0 size=    2121kB time=00:00:18.62 bitrate= 932.9kbits/s speed=0.222x    frame=  456 fps=5.4 q=32.0 size=    1419kB time=00:00:18.66 bitrate= 622.6kbits/s speed=0.222x    frame=  459 fps=5.4 q=30.0 size=    2138kB time=00:00:18.79 bitrate= 932.0kbits/s speed=0.222x    frame=  460 fps=5.4 q=35.0 size=    1430kB time=00:00:18.83 bitrate= 622.2kbits/s speed=0.222x    frame=  463 fps=5.4 q=33.0 size=    2155kB time=00:00:18.95 bitrate= 931.2kbits/s speed=0.222x    frame=  464 fps=5.4 q=33.0 size=    1459kB time=00:00:19.00 bitrate= 628.9kbits/s speed=0.223x    frame=  467 fps=5.4 q=35.0 size=    2187kB time=00:00:19.12 bitrate= 936.6kbits/s speed=0.223x    frame=  468 fps=5.5 q=33.0 size=    1466kB time=00:00:19.16 bitrate= 626.5kbits/s speed=0.223x    frame=  471 fps=5.4 q=34.0 size=    2203kB time=00:00:19.29 bitrate= 935.3kbits/s speed=0.223x    frame=  472 fps=5.5 q=32.0 size=    1477kB time=00:00:19.33 bitrate= 625.6kbits/s speed=0.224x    frame=  474 fps=5.4 q=34.0 size=    2217kB time=00:00:19.41 bitrate= 935.2kbits/s speed=0.223x    frame=  475 fps=5.5 q=31.0 size=    1485kB time=00:00:19.45 bitrate= 625.0kbits/s speed=0.224x    frame=  476 fps=5.4 q=34.0 size=    2225kB time=00:00:19.50 bitrate= 934.6kbits/s speed=0.223x    frame=  477 fps=5.4 q=32.0 size=    1490kB time=00:00:19.54 bitrate= 624.7kbits/s speed=0.223x    frame=  479 fps=5.4 q=34.0 size=    2237kB time=00:00:19.62 bitrate= 933.7kbits/s speed=0.223x    frame=  480 fps=5.5 q=31.0 size=    1498kB time=00:00:19.66 bitrate= 624.1kbits/s speed=0.223x    frame=  482 fps=5.4 q=34.0 size=    2249kB time=00:00:19.75 bitrate= 932.6kbits/s speed=0.223x    frame=  483 fps=5.4 q=29.0 size=    1507kB time=00:00:19.79 bitrate= 623.7kbits/s speed=0.223x    frame=  484 fps=5.4 q=35.0 size=    2257kB time=00:00:19.83 bitrate= 932.1kbits/s speed=0.222x    frame=  485 fps=5.4 q=33.0 size=    1513kB time=00:00:19.87 bitrate= 623.5kbits/s speed=0.223x    frame=  488 fps=5.4 q=33.0 size=    2284kB time=00:00:20.00 bitrate= 935.6kbits/s speed=0.223x    frame=  489 fps=5.4 q=31.0 size=    1535kB time=00:00:20.04 bitrate= 627.2kbits/s speed=0.223x    frame=  491 fps=5.4 q=34.0 size=    2292kB time=00:00:20.12 bitrate= 932.8kbits/s speed=0.223x    frame=  492 fps=5.4 q=32.0 size=    1539kB time=00:00:20.16 bitrate= 624.9kbits/s speed=0.223x    frame=  495 fps=5.4 q=34.0 size=    2307kB time=00:00:20.29 bitrate= 931.2kbits/s speed=0.223x    frame=  496 fps=5.4 q=32.0 size=    1550kB time=00:00:20.33 bitrate= 624.4kbits/s speed=0.223x    frame=  498 fps=5.4 q=37.0 size=    2320kB time=00:00:20.41 bitrate= 931.0kbits/s speed=0.223x    frame=  499 fps=5.4 q=34.0 size=    1558kB time=00:00:20.45 bitrate= 624.0kbits/s speed=0.223x    frame=  501 fps=5.4 q=30.0 size=    2333kB time=00:00:20.54 bitrate= 930.4kbits/s speed=0.223x    frame=  502 fps=5.4 q=27.0 size=    1567kB time=00:00:20.58 bitrate= 623.5kbits/s speed=0.223x    frame=  505 fps=5.4 q=34.0 size=    2352kB time=00:00:20.70 bitrate= 930.3kbits/s speed=0.223x    frame=  506 fps=5.5 q=32.0 size=    1584kB time=00:00:20.75 bitrate= 625.2kbits/s speed=0.224x    frame=  509 fps=5.5 q=35.0 size=    2369kB time=00:00:20.87 bitrate= 929.8kbits/s speed=0.224x    frame=  510 fps=5.5 q=33.0 size=    1594kB time=00:00:20.91 bitrate= 624.4kbits/s speed=0.224x    frame=  513 fps=5.5 q=34.0 size=    2399kB time=00:00:21.04 bitrate= 934.0kbits/s speed=0.224x    frame=  514 fps=5.5 q=31.0 size=    1616kB time=00:00:21.08 bitrate= 627.8kbits/s speed=0.225x    frame=  516 fps=5.5 q=34.0 size=    2410kB time=00:00:21.16 bitrate= 932.6kbits/s speed=0.224x    frame=  517 fps=5.5 q=32.0 size=    1623kB time=00:00:21.20 bitrate= 627.1kbits/s speed=0.225x    frame=  518 fps=5.5 q=35.0 size=    2418kB time=00:00:21.25 bitrate= 932.1kbits/s speed=0.224x    frame=  519 fps=5.5 q=32.0 size=    1628kB time=00:00:21.29 bitrate= 626.3kbits/s speed=0.224x    frame=  520 fps=5.4 q=34.0 size=    2427kB time=00:00:21.33 bitrate= 931.8kbits/s speed=0.223x    frame=  521 fps=5.4 q=31.0 size=    1634kB time=00:00:21.37 bitrate= 626.0kbits/s speed=0.223x    frame=  522 fps=5.4 q=34.0 size=    2436kB time=00:00:21.41 bitrate= 931.8kbits/s speed=0.222x    frame=  523 fps=5.4 q=32.0 size=    1639kB time=00:00:21.45 bitrate= 625.8kbits/s speed=0.223x    frame=  525 fps=5.4 q=34.0 size=    2450kB time=00:00:21.54 bitrate= 931.5kbits/s speed=0.222x    frame=  526 fps=5.4 q=30.0 size=    1647kB time=00:00:21.58 bitrate= 625.1kbits/s speed=0.222x    frame=  529 fps=5.4 q=34.0 size=    2467kB time=00:00:21.70 bitrate= 931.0kbits/s speed=0.222x    frame=  530 fps=5.4 q=32.0 size=    1659kB time=00:00:21.75 bitrate= 624.7kbits/s speed=0.223x    frame=  533 fps=5.4 q=35.0 size=    2487kB time=00:00:21.87 bitrate= 931.1kbits/s speed=0.223x    frame=  534 fps=5.4 q=33.0 size=    1671kB time=00:00:21.91 bitrate= 624.4kbits/s speed=0.223x    frame=  537 fps=5.4 q=34.0 size=    2517kB time=00:00:22.04 bitrate= 935.3kbits/s speed=0.223x    frame=  538 fps=5.4 q=31.0 size=    1692kB time=00:00:22.08 bitrate= 627.8kbits/s speed=0.223x    frame=  541 fps=5.4 q=34.0 size=    2530kB time=00:00:22.20 bitrate= 933.4kbits/s speed=0.223x    frame=  542 fps=5.5 q=32.0 size=    1702kB time=00:00:22.25 bitrate= 626.5kbits/s speed=0.224x    frame=  545 fps=5.5 q=34.0 size=    2547kB time=00:00:22.37 bitrate= 932.6kbits/s speed=0.224x    frame=  546 fps=5.5 q=32.0 size=    1712kB time=00:00:22.41 bitrate= 625.6kbits/s speed=0.224x    frame=  549 fps=5.5 q=34.0 size=    2564kB time=00:00:22.54 bitrate= 931.9kbits/s speed=0.224x    frame=  550 fps=5.5 q=30.0 size=    1723kB time=00:00:22.58 bitrate= 625.1kbits/s speed=0.225x    frame=  552 fps=5.5 q=34.0 size=    2578kB time=00:00:22.66 bitrate= 931.6kbits/s speed=0.224x    frame=  553 fps=5.5 q=32.0 size=    1732kB time=00:00:22.70 bitrate= 624.8kbits/s speed=0.225x    frame=  555 fps=5.5 q=31.0 size=    2588kB time=00:00:22.79 bitrate= 930.1kbits/s speed=0.224x    frame=  556 fps=5.5 q=35.0 size=    1742kB time=00:00:22.83 bitrate= 624.8kbits/s speed=0.225x    frame=  558 fps=5.5 q=35.0 size=    2603kB time=00:00:22.91 bitrate= 930.3kbits/s speed=0.224x    frame=  559 fps=5.5 q=33.0 size=    1751kB time=00:00:22.95 bitrate= 624.7kbits/s speed=0.224x    frame=  562 fps=5.5 q=33.0 size=    2632kB time=00:00:23.08 bitrate= 934.0kbits/s speed=0.224x    frame=  563 fps=5.5 q=32.0 size=    1774kB time=00:00:23.12 bitrate= 628.4kbits/s speed=0.225x    frame=  566 fps=5.5 q=35.0 size=    2651kB time=00:00:23.25 bitrate= 934.1kbits/s speed=0.225x    frame=  567 fps=5.5 q=33.0 size=    1785kB time=00:00:23.29 bitrate= 627.7kbits/s speed=0.225x    frame=  570 fps=5.5 q=34.0 size=    2669kB time=00:00:23.41 bitrate= 933.8kbits/s speed=0.225x    frame=  571 fps=5.5 q=33.0 size=    1797kB time=00:00:23.45 bitrate= 627.5kbits/s speed=0.225x    frame=  574 fps=5.5 q=33.0 size=    2687kB time=00:00:23.58 bitrate= 933.2kbits/s speed=0.225x    frame=  575 fps=5.5 q=32.0 size=    1808kB time=00:00:23.62 bitrate= 627.0kbits/s speed=0.226x    frame=  578 fps=5.5 q=35.0 size=    2706kB time=00:00:23.75 bitrate= 933.2kbits/s speed=0.226x    frame=  579 fps=5.5 q=29.0 size=    1820kB time=00:00:23.79 bitrate= 626.5kbits/s speed=0.226x    frame=  582 fps=5.5 q=35.0 size=    2724kB time=00:00:23.91 bitrate= 932.9kbits/s speed=0.226x    frame=  583 fps=5.5 q=33.0 size=    1832kB time=00:00:23.95 bitrate= 626.4kbits/s speed=0.226x    frame=  586 fps=5.5 q=33.0 size=    2757kB time=00:00:24.08 bitrate= 937.8kbits/s speed=0.226x    frame=  587 fps=5.5 q=32.0 size=    1854kB time=00:00:24.12 bitrate= 629.4kbits/s speed=0.227x    frame=  590 fps=5.5 q=35.0 size=    2773kB time=00:00:24.25 bitrate= 936.8kbits/s speed=0.227x    frame=  591 fps=5.5 q=33.0 size=    1864kB time=00:00:24.29 bitrate= 628.4kbits/s speed=0.227x    frame=  594 fps=5.5 q=34.0 size=    2791kB time=00:00:24.41 bitrate= 936.3kbits/s speed=0.227x    frame=  595 fps=5.5 q=33.0 size=    1876kB time=00:00:24.45 bitrate= 628.3kbits/s speed=0.227x    frame=  598 fps=5.5 q=33.0 size=    2809kB time=00:00:24.58 bitrate= 936.1kbits/s speed=0.227x    frame=  599 fps=5.5 q=33.0 size=    1888kB time=00:00:24.62 bitrate= 628.0kbits/s speed=0.228x    frame=  602 fps=5.5 q=36.0 size=    2828kB time=00:00:24.75 bitrate= 935.9kbits/s speed=0.228x    frame=  603 fps=5.5 q=30.0 size=    1899kB time=00:00:24.79 bitrate= 627.5kbits/s speed=0.228x    frame=  605 fps=5.5 q=36.0 size=    2842kB time=00:00:24.87 bitrate= 935.9kbits/s speed=0.228x    frame=  607 fps=5.5 q=34.0 size=    1911kB time=00:00:24.95 bitrate= 627.3kbits/s speed=0.228x    frame=  608 fps=5.5 q=35.0 size=    2872kB time=00:00:25.00 bitrate= 940.9kbits/s speed=0.227x    frame=  610 fps=5.5 q=31.0 size=    1930kB time=00:00:25.08 bitrate= 630.4kbits/s speed=0.228x    frame=  611 fps=5.5 q=35.0 size=    2883kB time=00:00:25.12 bitrate= 939.9kbits/s speed=0.227x    frame=  613 fps=5.5 q=32.0 size=    1938kB time=00:00:25.20 bitrate= 629.9kbits/s speed=0.228x    frame=  614 fps=5.5 q=35.0 size=    2897kB time=00:00:25.25 bitrate= 939.8kbits/s speed=0.227x    frame=  616 fps=5.5 q=32.0 size=    1947kB time=00:00:25.33 bitrate= 629.4kbits/s speed=0.227x    frame=  617 fps=5.5 q=35.0 size=    2911kB time=00:00:25.37 bitrate= 939.8kbits/s speed=0.227x    frame=  619 fps=5.5 q=32.0 size=    1955kB time=00:00:25.45 bitrate= 629.1kbits/s speed=0.227x    frame=  620 fps=5.5 q=35.0 size=    2927kB time=00:00:25.50 bitrate= 940.4kbits/s speed=0.227x    frame=  622 fps=5.5 q=31.0 size=    1963kB time=00:00:25.58 bitrate= 628.7kbits/s speed=0.227x    frame=  624 fps=5.5 q=35.0 size=    2948kB time=00:00:25.66 bitrate= 940.9kbits/s speed=0.227x    frame=  626 fps=5.5 q=32.0 size=    1975kB time=00:00:25.75 bitrate= 628.4kbits/s speed=0.228x    frame=  628 fps=5.5 q=36.0 size=    2967kB time=00:00:25.83 bitrate= 940.8kbits/s speed=0.227x    frame=  630 fps=5.5 q=33.0 size=    1987kB time=00:00:25.91 bitrate= 628.1kbits/s speed=0.228x    frame=  632 fps=5.5 q=34.0 size=    2997kB time=00:00:26.00 bitrate= 944.4kbits/s speed=0.228x    frame=  634 fps=5.5 q=31.0 size=    2010kB time=00:00:26.08 bitrate= 631.1kbits/s speed=0.228x    frame=  636 fps=5.5 q=34.0 size=    3012kB time=00:00:26.16 bitrate= 942.9kbits/s speed=0.228x    frame=  638 fps=5.5 q=31.0 size=    2019kB time=00:00:26.25 bitrate= 630.2kbits/s speed=0.228x    frame=  639 fps=5.5 q=34.0 size=    3022kB time=00:00:26.29 bitrate= 941.7kbits/s speed=0.227x    frame=  641 fps=5.5 q=31.0 size=    2026kB time=00:00:26.37 bitrate= 629.4kbits/s speed=0.227x    frame=  641 fps=5.5 q=33.0 size=    3032kB time=00:00:26.37 bitrate= 941.7kbits/s speed=0.227x    frame=  645 fps=5.5 q=31.0 size=    2038kB time=00:00:26.54 bitrate= 628.9kbits/s speed=0.227x    frame=  645 fps=5.5 q=34.0 size=    3048kB time=00:00:26.54 bitrate= 940.7kbits/s speed=0.227x    frame=  648 fps=5.5 q=31.0 size=    2046kB time=00:00:26.66 bitrate= 628.5kbits/s speed=0.227x    frame=  648 fps=5.5 q=34.0 size=    3061kB time=00:00:26.66 bitrate= 940.2kbits/s speed=0.227x    frame=  651 fps=5.5 q=31.0 size=    3073kB time=00:00:26.79 bitrate= 939.6kbits/s speed=0.227x    frame=  652 fps=5.5 q=35.0 size=    2056kB time=00:00:26.83 bitrate= 627.8kbits/s speed=0.227x    frame=  655 fps=5.5 q=35.0 size=    3092kB time=00:00:26.95 bitrate= 939.7kbits/s speed=0.227x    frame=  656 fps=5.5 q=32.0 size=    2081kB time=00:00:27.00 bitrate= 631.4kbits/s speed=0.228x    frame=  658 fps=5.5 q=33.0 size=    3116kB time=00:00:27.08 bitrate= 942.6kbits/s speed=0.227x    frame=  659 fps=5.5 q=31.0 size=    2085kB time=00:00:27.12 bitrate= 629.8kbits/s speed=0.228x    frame=  662 fps=5.5 q=34.0 size=    3134kB time=00:00:27.25 bitrate= 942.1kbits/s speed=0.227x    frame=  663 fps=5.5 q=31.0 size=    2095kB time=00:00:27.29 bitrate= 628.9kbits/s speed=0.228x    frame=  666 fps=5.5 q=34.0 size=    3150kB time=00:00:27.41 bitrate= 941.2kbits/s speed=0.228x    frame=  667 fps=5.5 q=32.0 size=    2106kB time=00:00:27.45 bitrate= 628.2kbits/s speed=0.228x    frame=  670 fps=5.5 q=33.0 size=    3168kB time=00:00:27.58 bitrate= 940.8kbits/s speed=0.228x    frame=  671 fps=5.5 q=31.0 size=    2117kB time=00:00:27.62 bitrate= 627.9kbits/s speed=0.228x    frame=  673 fps=5.5 q=33.0 size=    3181kB time=00:00:27.70 bitrate= 940.4kbits/s speed=0.228x    frame=  674 fps=5.5 q=31.0 size=    2126kB time=00:00:27.75 bitrate= 627.4kbits/s speed=0.228x    frame=  677 fps=5.5 q=35.0 size=    3198kB time=00:00:27.87 bitrate= 939.9kbits/s speed=0.228x    frame=  678 fps=5.5 q=33.0 size=    2137kB time=00:00:27.91 bitrate= 627.0kbits/s speed=0.228x    frame=  681 fps=5.5 q=34.0 size=    3227kB time=00:00:28.04 bitrate= 942.8kbits/s speed=0.228x    frame=  682 fps=5.6 q=30.0 size=    2159kB time=00:00:28.08 bitrate= 629.7kbits/s speed=0.229x    frame=  684 fps=5.5 q=34.0 size=    3241kB time=00:00:28.16 bitrate= 942.4kbits/s speed=0.228x    frame=  685 fps=5.6 q=32.0 size=    2166kB time=00:00:28.20 bitrate= 629.0kbits/s speed=0.229x    frame=  688 fps=5.6 q=35.0 size=    3258kB time=00:00:28.33 bitrate= 942.1kbits/s speed=0.229x    frame=  689 fps=5.6 q=32.0 size=    2177kB time=00:00:28.37 bitrate= 628.4kbits/s speed=0.229x    frame=  692 fps=5.6 q=35.0 size=    3279kB time=00:00:28.50 bitrate= 942.6kbits/s speed=0.229x    frame=  693 fps=5.6 q=32.0 size=    2188kB time=00:00:28.54 bitrate= 627.9kbits/s speed=0.229x    frame=  696 fps=5.6 q=35.0 size=    3299kB time=00:00:28.66 bitrate= 942.6kbits/s speed=0.229x    frame=  697 fps=5.6 q=32.0 size=    2201kB time=00:00:28.70 bitrate= 628.0kbits/s speed=0.23x    frame=  700 fps=5.6 q=36.0 size=    3316kB time=00:00:28.83 bitrate= 942.2kbits/s speed=0.229x    frame=  701 fps=5.6 q=34.0 size=    2214kB time=00:00:28.87 bitrate= 628.1kbits/s speed=0.23x    frame=  704 fps=5.6 q=34.0 size=    3350kB time=00:00:29.00 bitrate= 946.2kbits/s speed=0.23x    frame=  705 fps=5.6 q=32.0 size=    2239kB time=00:00:29.04 bitrate= 631.5kbits/s speed=0.23x    frame=  708 fps=5.6 q=34.0 size=    3365kB time=00:00:29.16 bitrate= 945.0kbits/s speed=0.23x    frame=  709 fps=5.6 q=32.0 size=    2248kB time=00:00:29.20 bitrate= 630.3kbits/s speed=0.23x    frame=  712 fps=5.6 q=35.0 size=    3382kB time=00:00:29.33 bitrate= 944.5kbits/s speed=0.23x    frame=  713 fps=5.6 q=32.0 size=    2259kB time=00:00:29.37 bitrate= 629.9kbits/s speed=0.231x    frame=  716 fps=5.6 q=34.0 size=    3402kB time=00:00:29.50 bitrate= 944.6kbits/s speed=0.231x    frame=  717 fps=5.6 q=32.0 size=    2271kB time=00:00:29.54 bitrate= 629.7kbits/s speed=0.231x    frame=  720 fps=5.6 q=34.0 size=    3419kB time=00:00:29.66 bitrate= 944.0kbits/s speed=0.231x    frame=  721 fps=5.6 q=31.0 size=    2282kB time=00:00:29.70 bitrate= 629.1kbits/s speed=0.231x    frame=  724 fps=5.6 q=36.0 size=    3436kB time=00:00:29.83 bitrate= 943.5kbits/s speed=0.231x    frame=  725 fps=5.6 q=34.0 size=    2294kB time=00:00:29.87 bitrate= 629.1kbits/s speed=0.231x    frame=  728 fps=5.6 q=34.0 size=    3469kB time=00:00:30.00 bitrate= 947.4kbits/s speed=0.231x    frame=  729 fps=5.6 q=32.0 size=    2318kB time=00:00:30.04 bitrate= 632.1kbits/s speed=0.232x    frame=  732 fps=5.6 q=35.0 size=    3485kB time=00:00:30.16 bitrate= 946.3kbits/s speed=0.232x    frame=  733 fps=5.6 q=32.0 size=    2326kB time=00:00:30.20 bitrate= 630.8kbits/s speed=0.232x    frame=  736 fps=5.6 q=34.0 size=    3502kB time=00:00:30.33 bitrate= 945.8kbits/s speed=0.232x    frame=  737 fps=5.6 q=32.0 size=    2336kB time=00:00:30.37 bitrate= 630.0kbits/s speed=0.232x    frame=  738 fps=5.6 q=34.0 size=    3511kB time=00:00:30.41 bitrate= 945.6kbits/s speed=0.231x    frame=  739 fps=5.6 q=32.0 size=    2341kB time=00:00:30.45 bitrate= 629.7kbits/s speed=0.231x    frame=  741 fps=5.6 q=34.0 size=    3525kB time=00:00:30.54 bitrate= 945.4kbits/s speed=0.231x    frame=  742 fps=5.6 q=30.0 size=    2349kB time=00:00:30.58 bitrate= 629.3kbits/s speed=0.231x    frame=  743 fps=5.6 q=34.0 size=    3534kB time=00:00:30.62 bitrate= 945.3kbits/s speed=0.231x    frame=  744 fps=5.6 q=32.0 size=    2354kB time=00:00:30.66 bitrate= 628.9kbits/s speed=0.231x    frame=  746 fps=5.6 q=34.0 size=    3547kB time=00:00:30.75 bitrate= 945.0kbits/s speed=0.23x    frame=  747 fps=5.6 q=29.0 size=    2363kB time=00:00:30.79 bitrate= 628.7kbits/s speed=0.231x    frame=  749 fps=5.6 q=36.0 size=    3561kB time=00:00:30.87 bitrate= 944.8kbits/s speed=0.23x    frame=  750 fps=5.6 q=33.0 size=    2371kB time=00:00:30.91 bitrate= 628.3kbits/s speed=0.231x    frame=  753 fps=5.6 q=35.0 size=    3595kB time=00:00:31.04 bitrate= 948.6kbits/s speed=0.231x    frame=  754 fps=5.6 q=30.0 size=    2394kB time=00:00:31.08 bitrate= 631.0kbits/s speed=0.231x    frame=  756 fps=5.6 q=34.0 size=    3608kB time=00:00:31.16 bitrate= 948.2kbits/s speed=0.23x    frame=  757 fps=5.6 q=31.0 size=    2402kB time=00:00:31.20 bitrate= 630.5kbits/s speed=0.231x    frame=  760 fps=5.6 q=34.0 size=    3626kB time=00:00:31.33 bitrate= 948.0kbits/s speed=0.231x    frame=  761 fps=5.6 q=31.0 size=    2413kB time=00:00:31.37 bitrate= 630.1kbits/s speed=0.231x    frame=  764 fps=5.6 q=34.0 size=    3645kB time=00:00:31.50 bitrate= 947.9kbits/s speed=0.231x    frame=  765 fps=5.6 q=31.0 size=    2425kB time=00:00:31.54 bitrate= 629.9kbits/s speed=0.231x    frame=  768 fps=5.6 q=33.0 size=    3661kB time=00:00:31.66 bitrate= 946.9kbits/s speed=0.231x    frame=  769 fps=5.6 q=31.0 size=    2436kB time=00:00:31.70 bitrate= 629.3kbits/s speed=0.231x    frame=  772 fps=5.6 q=36.0 size=    3676kB time=00:00:31.83 bitrate= 946.1kbits/s speed=0.231x    frame=  773 fps=5.6 q=33.0 size=    2446kB time=00:00:31.87 bitrate= 628.6kbits/s speed=0.231x    frame=  775 fps=5.6 q=35.0 size=    3688kB time=00:00:31.95 bitrate= 945.4kbits/s speed=0.231x    frame=  776 fps=5.6 q=31.0 size=    2468kB time=00:00:32.00 bitrate= 631.8kbits/s speed=0.231x    frame=  779 fps=5.6 q=35.0 size=    3717kB time=00:00:32.12 bitrate= 947.8kbits/s speed=0.231x    frame=  780 fps=5.6 q=32.0 size=    2474kB time=00:00:32.16 bitrate= 630.1kbits/s speed=0.232x    frame=  782 fps=5.6 q=35.0 size=    3731kB time=00:00:32.25 bitrate= 947.6kbits/s speed=0.231x    frame=  783 fps=5.6 q=32.0 size=    2482kB time=00:00:32.29 bitrate= 629.7kbits/s speed=0.232x    frame=  785 fps=5.6 q=35.0 size=    3744kB time=00:00:32.37 bitrate= 947.2kbits/s speed=0.231x    frame=  786 fps=5.6 q=32.0 size=    2492kB time=00:00:32.41 bitrate= 629.7kbits/s speed=0.232x    frame=  789 fps=5.6 q=34.0 size=    3763kB time=00:00:32.54 bitrate= 947.3kbits/s speed=0.232x    frame=  790 fps=5.6 q=30.0 size=    2504kB time=00:00:32.58 bitrate= 629.4kbits/s speed=0.232x    frame=  792 fps=5.6 q=35.0 size=    3779kB time=00:00:32.66 bitrate= 947.7kbits/s speed=0.232x    frame=  793 fps=5.6 q=32.0 size=    2513kB time=00:00:32.70 bitrate= 629.3kbits/s speed=0.232x    frame=  795 fps=5.6 q=31.0 size=    3793kB time=00:00:32.79 bitrate= 947.6kbits/s speed=0.232x    frame=  796 fps=5.6 q=35.0 size=    2523kB time=00:00:32.83 bitrate= 629.6kbits/s speed=0.232x    frame=  798 fps=5.6 q=35.0 size=    3809kB time=00:00:32.91 bitrate= 947.9kbits/s speed=0.232x    frame=  799 fps=5.6 q=34.0 size=    2532kB time=00:00:32.95 bitrate= 629.4kbits/s speed=0.232x    frame=  801 fps=5.6 q=34.0 size=    3835kB time=00:00:33.04 bitrate= 950.9kbits/s speed=0.232x    frame=  802 fps=5.6 q=31.0 size=    2553kB time=00:00:33.08 bitrate= 632.1kbits/s speed=0.232x    frame=  805 fps=5.6 q=35.0 size=    3852kB time=00:00:33.20 bitrate= 950.3kbits/s speed=0.232x    frame=  806 fps=5.6 q=33.0 size=    2564kB time=00:00:33.25 bitrate= 631.7kbits/s speed=0.232x    frame=  809 fps=5.6 q=35.0 size=    3869kB time=00:00:33.37 bitrate= 949.6kbits/s speed=0.232x    frame=  810 fps=5.6 q=33.0 size=    2576kB time=00:00:33.41 bitrate= 631.5kbits/s speed=0.232x    frame=  811 fps=5.6 q=35.0 size=    3879kB time=00:00:33.45 bitrate= 949.7kbits/s speed=0.232x    frame=  812 fps=5.6 q=33.0 size=    2583kB time=00:00:33.50 bitrate= 631.6kbits/s speed=0.232x    frame=  813 fps=5.6 q=34.0 size=    3888kB time=00:00:33.54 bitrate= 949.6kbits/s speed=0.231x    frame=  814 fps=5.6 q=31.0 size=    2589kB time=00:00:33.58 bitrate= 631.4kbits/s speed=0.231x    frame=  817 fps=5.6 q=35.0 size=    3906kB time=00:00:33.70 bitrate= 949.4kbits/s speed=0.231x    frame=  818 fps=5.6 q=33.0 size=    2601kB time=00:00:33.75 bitrate= 631.2kbits/s speed=0.232x    frame=  819 fps=5.6 q=32.0 size=    3914kB time=00:00:33.79 bitrate= 948.8kbits/s speed=0.231x    frame=  820 fps=5.6 q=35.0 size=    2607kB time=00:00:33.83 bitrate= 631.3kbits/s speed=0.231x    frame=  821 fps=5.6 q=35.0 size=    3923kB time=00:00:33.87 bitrate= 948.7kbits/s speed=0.231x    frame=  822 fps=5.6 q=33.0 size=    2612kB time=00:00:33.91 bitrate= 630.9kbits/s speed=0.231x    frame=  824 fps=5.6 q=34.0 size=    3949kB time=00:00:34.00 bitrate= 951.4kbits/s speed=0.231x    frame=  825 fps=5.6 q=32.0 size=    2632kB time=00:00:34.04 bitrate= 633.3kbits/s speed=0.231x    frame=  827 fps=5.6 q=33.0 size=    3958kB time=00:00:34.12 bitrate= 950.2kbits/s speed=0.231x    frame=  828 fps=5.6 q=31.0 size=    2638kB time=00:00:34.16 bitrate= 632.5kbits/s speed=0.231x    frame=  830 fps=5.6 q=34.0 size=    3970kB time=00:00:34.25 bitrate= 949.5kbits/s speed=0.231x    frame=  831 fps=5.6 q=31.0 size=    2645kB time=00:00:34.29 bitrate= 631.8kbits/s speed=0.231x    frame=  833 fps=5.6 q=33.0 size=    3981kB time=00:00:34.37 bitrate= 948.7kbits/s speed=0.231x    frame=  834 fps=5.6 q=30.0 size=    2652kB time=00:00:34.41 bitrate= 631.3kbits/s speed=0.231x    frame=  837 fps=5.6 q=33.0 size=    3997kB time=00:00:34.54 bitrate= 947.8kbits/s speed=0.231x    frame=  838 fps=5.6 q=29.0 size=    2662kB time=00:00:34.58 bitrate= 630.6kbits/s speed=0.231x    frame=  841 fps=5.6 q=33.0 size=    4012kB time=00:00:34.70 bitrate= 947.0kbits/s speed=0.231x    frame=  842 fps=5.6 q=31.0 size=    2672kB time=00:00:34.75 bitrate= 629.9kbits/s speed=0.231x    frame=  844 fps=5.6 q=36.0 size=    4022kB time=00:00:34.83 bitrate= 945.9kbits/s speed=0.231x    frame=  845 fps=5.6 q=33.0 size=    2679kB time=00:00:34.87 bitrate= 629.2kbits/s speed=0.231x    frame=  847 fps=5.6 q=35.0 size=    4033kB time=00:00:34.95 bitrate= 945.1kbits/s speed=0.231x    frame=  848 fps=5.6 q=32.0 size=    2701kB time=00:00:35.00 bitrate= 632.1kbits/s speed=0.231x    frame=  851 fps=5.6 q=34.0 size=    4061kB time=00:00:35.12 bitrate= 947.1kbits/s speed=0.231x    frame=  852 fps=5.6 q=31.0 size=    2708kB time=00:00:35.16 bitrate= 630.7kbits/s speed=0.231x    frame=  854 fps=5.6 q=34.0 size=    4073kB time=00:00:35.25 bitrate= 946.6kbits/s speed=0.231x    frame=  855 fps=5.6 q=32.0 size=    2714kB time=00:00:35.29 bitrate= 630.0kbits/s speed=0.231x    frame=  857 fps=5.6 q=34.0 size=    4084kB time=00:00:35.37 bitrate= 945.8kbits/s speed=0.231x    frame=  858 fps=5.6 q=32.0 size=    2722kB time=00:00:35.41 bitrate= 629.7kbits/s speed=0.231x    frame=  860 fps=5.6 q=34.0 size=    4096kB time=00:00:35.50 bitrate= 945.2kbits/s speed=0.231x    frame=  861 fps=5.6 q=31.0 size=    2730kB time=00:00:35.54 bitrate= 629.3kbits/s speed=0.231x    frame=  863 fps=5.6 q=34.0 size=    4109kB time=00:00:35.62 bitrate= 944.8kbits/s speed=0.231x    frame=  864 fps=5.6 q=32.0 size=    2737kB time=00:00:35.66 bitrate= 628.7kbits/s speed=0.231x    frame=  866 fps=5.6 q=34.0 size=    4121kB time=00:00:35.75 bitrate= 944.3kbits/s speed=0.231x    frame=  867 fps=5.6 q=29.0 size=    2746kB time=00:00:35.79 bitrate= 628.4kbits/s speed=0.231x    frame=  870 fps=5.6 q=34.0 size=    4138kB time=00:00:35.91 bitrate= 943.8kbits/s speed=0.231x    frame=  871 fps=5.6 q=33.0 size=    2757kB time=00:00:35.95 bitrate= 628.1kbits/s speed=0.231x    frame=  873 fps=5.6 q=34.0 size=    4163kB time=00:00:36.04 bitrate= 946.3kbits/s speed=0.231x    frame=  874 fps=5.6 q=31.0 size=    2777kB time=00:00:36.08 bitrate= 630.5kbits/s speed=0.231x    frame=  876 fps=5.6 q=33.0 size=    4174kB time=00:00:36.16 bitrate= 945.4kbits/s speed=0.231x    frame=  877 fps=5.6 q=32.0 size=    2785kB time=00:00:36.20 bitrate= 630.1kbits/s speed=0.231x    frame=  878 fps=5.6 q=33.0 size=    4181kB time=00:00:36.25 bitrate= 944.8kbits/s speed=0.231x    frame=  879 fps=5.6 q=32.0 size=    2790kB time=00:00:36.29 bitrate= 629.7kbits/s speed=0.231x    frame=  881 fps=5.6 q=33.0 size=    4192kB time=00:00:36.37 bitrate= 944.1kbits/s speed=0.23x    frame=  882 fps=5.6 q=31.0 size=    2798kB time=00:00:36.41 bitrate= 629.5kbits/s speed=0.231x    frame=  884 fps=5.6 q=33.0 size=    4203kB time=00:00:36.50 bitrate= 943.4kbits/s speed=0.231x    frame=  885 fps=5.6 q=30.0 size=    2808kB time=00:00:36.54 bitrate= 629.5kbits/s speed=0.231x    frame=  887 fps=5.6 q=33.0 size=    4215kB time=00:00:36.62 bitrate= 942.8kbits/s speed=0.23x    frame=  888 fps=5.6 q=30.0 size=    2815kB time=00:00:36.66 bitrate= 629.0kbits/s speed=0.231x    frame=  889 fps=5.6 q=32.0 size=    4223kB time=00:00:36.70 bitrate= 942.4kbits/s speed=0.23x    frame=  890 fps=5.6 q=29.0 size=    2821kB time=00:00:36.75 bitrate= 628.7kbits/s speed=0.23x    frame=  891 fps=5.6 q=30.0 size=    4230kB time=00:00:36.79 bitrate= 941.8kbits/s speed=0.23x    frame=  892 fps=5.6 q=34.0 size=    2825kB time=00:00:36.83 bitrate= 628.3kbits/s speed=0.23x    frame=  893 fps=5.6 q=34.0 size=    4237kB time=00:00:36.87 bitrate= 941.1kbits/s speed=0.229x    frame=  894 fps=5.6 q=31.0 size=    2830kB time=00:00:36.91 bitrate= 627.9kbits/s speed=0.23x    frame=  895 fps=5.5 q=32.0 size=    4243kB time=00:00:36.95 bitrate= 940.4kbits/s speed=0.229x    frame=  896 fps=5.5 q=30.0 size=    2848kB time=00:00:37.00 bitrate= 630.6kbits/s speed=0.229x    frame=  898 fps=5.5 q=31.0 size=    4264kB time=00:00:37.08 bitrate= 941.8kbits/s speed=0.228x    frame=  899 fps=5.5 q=30.0 size=    2851kB time=00:00:37.12 bitrate= 629.1kbits/s speed=0.229x    frame=  900 fps=5.5 q=32.0 size=    4268kB time=00:00:37.16 bitrate= 940.7kbits/s speed=0.228x    frame=  901 fps=5.5 q=30.0 size=    2855kB time=00:00:37.20 bitrate= 628.5kbits/s speed=0.228x    frame=  902 fps=5.5 q=32.0 size=    4273kB time=00:00:37.25 bitrate= 939.6kbits/s speed=0.227x    frame=  903 fps=5.5 q=30.0 size=    2858kB time=00:00:37.29 bitrate= 627.8kbits/s speed=0.228x    frame=  905 fps=5.5 q=32.0 size=    4283kB time=00:00:37.37 bitrate= 938.7kbits/s speed=0.227x    frame=  906 fps=5.5 q=31.0 size=    2864kB time=00:00:37.41 bitrate= 627.1kbits/s speed=0.228x    frame=  909 fps=5.5 q=32.0 size=    4297kB time=00:00:37.54 bitrate= 937.5kbits/s speed=0.227x    frame=  910 fps=5.5 q=30.0 size=    2873kB time=00:00:37.58 bitrate= 626.3kbits/s speed=0.227x    frame=  911 fps=5.5 q=33.0 size=    4304kB time=00:00:37.62 bitrate= 937.0kbits/s speed=0.227x    frame=  912 fps=5.5 q=31.0 size=    2879kB time=00:00:37.66 bitrate= 626.1kbits/s speed=0.227x    frame=  913 fps=5.5 q=33.0 size=    4310kB time=00:00:37.70 bitrate= 936.4kbits/s speed=0.226x    frame=  914 fps=5.5 q=31.0 size=    2884kB time=00:00:37.75 bitrate= 625.9kbits/s speed=0.226x    frame=  916 fps=5.5 q=35.0 size=    4321kB time=00:00:37.83 bitrate= 935.6kbits/s speed=0.226x    frame=  917 fps=5.5 q=33.0 size=    2891kB time=00:00:37.87 bitrate= 625.4kbits/s speed=0.226x    frame=  920 fps=5.5 q=33.0 size=    4350kB time=00:00:38.00 bitrate= 937.7kbits/s speed=0.226x    frame=  921 fps=5.5 q=31.0 size=    2915kB time=00:00:38.04 bitrate= 627.7kbits/s speed=0.227x    frame=  924 fps=5.5 q=32.0 size=    4361kB time=00:00:38.16 bitrate= 936.1kbits/s speed=0.226x    frame=  925 fps=5.5 q=30.0 size=    2924kB time=00:00:38.20 bitrate= 626.9kbits/s speed=0.227x    frame=  927 fps=5.5 q=33.0 size=    4370kB time=00:00:38.29 bitrate= 934.9kbits/s speed=0.226x    frame=  928 fps=5.5 q=31.0 size=    2931kB time=00:00:38.33 bitrate= 626.3kbits/s speed=0.227x    frame=  931 fps=5.5 q=33.0 size=    4384kB time=00:00:38.45 bitrate= 933.7kbits/s speed=0.227x    frame=  932 fps=5.5 q=31.0 size=    2940kB time=00:00:38.50 bitrate= 625.5kbits/s speed=0.227x    frame=  935 fps=5.5 q=34.0 size=    4396kB time=00:00:38.62 bitrate= 932.4kbits/s speed=0.227x    frame=  936 fps=5.5 q=32.0 size=    2949kB time=00:00:38.66 bitrate= 624.8kbits/s speed=0.227x    frame=  939 fps=5.5 q=30.0 size=    4408kB time=00:00:38.79 bitrate= 930.9kbits/s speed=0.227x    frame=  940 fps=5.5 q=34.0 size=    2958kB time=00:00:38.83 bitrate= 624.0kbits/s speed=0.227x    frame=  943 fps=5.5 q=34.0 size=    4422kB time=00:00:38.95 bitrate= 929.9kbits/s speed=0.227x    frame=  944 fps=5.5 q=31.0 size=    2986kB time=00:00:39.00 bitrate= 627.2kbits/s speed=0.227x    frame=  946 fps=5.5 q=32.0 size=    4446kB time=00:00:39.08 bitrate= 931.9kbits/s speed=0.227x    frame=  947 fps=5.5 q=31.0 size=    2990kB time=00:00:39.12 bitrate= 626.0kbits/s speed=0.228x    frame=  950 fps=5.5 q=35.0 size=    4460kB time=00:00:39.25 bitrate= 930.9kbits/s speed=0.227x    frame=  951 fps=5.5 q=32.0 size=    2998kB time=00:00:39.29 bitrate= 625.1kbits/s speed=0.228x    frame=  952 fps=5.5 q=34.0 size=    4467kB time=00:00:39.33 bitrate= 930.4kbits/s speed=0.227x    frame=  953 fps=5.5 q=31.0 size=    3004kB time=00:00:39.37 bitrate= 624.9kbits/s speed=0.228x    frame=  956 fps=5.5 q=34.0 size=    4484kB time=00:00:39.50 bitrate= 929.8kbits/s speed=0.227x    frame=  957 fps=5.5 q=31.0 size=    3015kB time=00:00:39.54 bitrate= 624.5kbits/s speed=0.228x    frame=  959 fps=5.5 q=35.0 size=    4497kB time=00:00:39.62 bitrate= 929.7kbits/s speed=0.227x    frame=  960 fps=5.5 q=33.0 size=    3023kB time=00:00:39.66 bitrate= 624.3kbits/s speed=0.227x    frame=  962 fps=5.5 q=35.0 size=    4510kB time=00:00:39.75 bitrate= 929.5kbits/s speed=0.227x    frame=  963 fps=5.5 q=29.0 size=    3031kB time=00:00:39.79 bitrate= 624.1kbits/s speed=0.228x    frame=  965 fps=5.5 q=35.0 size=    4522kB time=00:00:39.87 bitrate= 928.9kbits/s speed=0.227x    frame=  966 fps=5.5 q=33.0 size=    3039kB time=00:00:39.91 bitrate= 623.6kbits/s speed=0.228x    frame=  969 fps=5.5 q=34.0 size=    4552kB time=00:00:40.04 bitrate= 931.3kbits/s speed=0.227x    frame=  970 fps=5.5 q=31.0 size=    3062kB time=00:00:40.08 bitrate= 625.8kbits/s speed=0.228x    frame=  973 fps=5.5 q=33.0 size=    4567kB time=00:00:40.20 bitrate= 930.4kbits/s speed=0.228x    frame=  974 fps=5.5 q=31.0 size=    3072kB time=00:00:40.25 bitrate= 625.2kbits/s speed=0.228x    frame=  977 fps=5.5 q=34.0 size=    4582kB time=00:00:40.37 bitrate= 929.6kbits/s speed=0.228x    frame=  978 fps=5.5 q=31.0 size=    3083kB time=00:00:40.41 bitrate= 624.9kbits/s speed=0.228x    frame=  981 fps=5.5 q=33.0 size=    4598kB time=00:00:40.54 bitrate= 929.1kbits/s speed=0.228x    frame=  982 fps=5.5 q=30.0 size=    3094kB time=00:00:40.58 bitrate= 624.5kbits/s speed=0.228x    frame=  984 fps=5.5 q=33.0 size=    4609kB time=00:00:40.66 bitrate= 928.5kbits/s speed=0.228x    frame=  985 fps=5.5 q=32.0 size=    3102kB time=00:00:40.70 bitrate= 624.3kbits/s speed=0.228x    frame=  988 fps=5.5 q=36.0 size=    4623kB time=00:00:40.83 bitrate= 927.5kbits/s speed=0.228x    frame=  989 fps=5.5 q=34.0 size=    3113kB time=00:00:40.87 bitrate= 623.8kbits/s speed=0.228x    frame=  992 fps=5.5 q=34.0 size=    4653kB time=00:00:41.00 bitrate= 929.7kbits/s speed=0.228x    frame=  993 fps=5.5 q=36.0 size=    3135kB time=00:00:41.04 bitrate= 625.7kbits/s speed=0.228x    frame=  996 fps=5.5 q=30.0 size=    4668kB time=00:00:41.16 bitrate= 928.8kbits/s speed=0.228x    frame=  997 fps=5.5 q=27.0 size=    3143kB time=00:00:41.20 bitrate= 624.9kbits/s speed=0.228x    frame=  999 fps=5.5 q=34.0 size=    4682kB time=00:00:41.29 bitrate= 928.9kbits/s speed=0.228x    frame= 1000 fps=5.5 q=32.0 size=    3158kB time=00:00:41.33 bitrate= 625.8kbits/s speed=0.228x    frame= 1003 fps=5.5 q=34.0 size=    4699kB time=00:00:41.45 bitrate= 928.6kbits/s speed=0.228x    frame= 1004 fps=5.5 q=32.0 size=    3168kB time=00:00:41.50 bitrate= 625.4kbits/s speed=0.228x    frame= 1007 fps=5.5 q=34.0 size=    4716kB time=00:00:41.62 bitrate= 928.2kbits/s speed=0.228x    frame= 1008 fps=5.5 q=32.0 size=    3179kB time=00:00:41.66 bitrate= 625.1kbits/s speed=0.229x    frame= 1011 fps=5.5 q=31.0 size=    4732kB time=00:00:41.79 bitrate= 927.5kbits/s speed=0.229x    frame= 1012 fps=5.5 q=35.0 size=    3191kB time=00:00:41.83 bitrate= 624.9kbits/s speed=0.229x    frame= 1015 fps=5.5 q=34.0 size=    4749kB time=00:00:41.95 bitrate= 927.3kbits/s speed=0.229x    frame= 1016 fps=5.5 q=31.0 size=    3217kB time=00:00:42.00 bitrate= 627.5kbits/s speed=0.229x    frame= 1019 fps=5.5 q=34.0 size=    4780kB time=00:00:42.12 bitrate= 929.5kbits/s speed=0.229x    frame= 1020 fps=5.5 q=32.0 size=    3225kB time=00:00:42.16 bitrate= 626.4kbits/s speed=0.229x    frame= 1023 fps=5.5 q=34.0 size=    4796kB time=00:00:42.29 bitrate= 928.9kbits/s speed=0.229x    frame= 1024 fps=5.5 q=32.0 size=    3236kB time=00:00:42.33 bitrate= 626.1kbits/s speed=0.229x    frame= 1027 fps=5.5 q=34.0 size=    4816kB time=00:00:42.45 bitrate= 929.2kbits/s speed=0.229x    frame= 1028 fps=5.5 q=32.0 size=    3247kB time=00:00:42.50 bitrate= 625.8kbits/s speed=0.229x    frame= 1030 fps=5.5 q=34.0 size=    4829kB time=00:00:42.58 bitrate= 928.9kbits/s speed=0.229x    frame= 1031 fps=5.5 q=32.0 size=    3255kB time=00:00:42.62 bitrate= 625.6kbits/s speed=0.229x    frame= 1033 fps=5.5 q=33.0 size=    4841kB time=00:00:42.70 bitrate= 928.6kbits/s speed=0.229x    frame= 1034 fps=5.5 q=32.0 size=    3263kB time=00:00:42.75 bitrate= 625.4kbits/s speed=0.229x    frame= 1036 fps=5.5 q=36.0 size=    4854kB time=00:00:42.83 bitrate= 928.3kbits/s speed=0.229x    frame= 1037 fps=5.5 q=34.0 size=    3272kB time=00:00:42.87 bitrate= 625.2kbits/s speed=0.229x    frame= 1039 fps=5.5 q=34.0 size=    4867kB time=00:00:42.95 bitrate= 928.1kbits/s speed=0.229x    frame= 1040 fps=5.5 q=32.0 size=    3295kB time=00:00:43.00 bitrate= 627.8kbits/s speed=0.229x    frame= 1043 fps=5.5 q=34.0 size=    4896kB time=00:00:43.12 bitrate= 930.1kbits/s speed=0.229x    frame= 1044 fps=5.5 q=32.0 size=    3303kB time=00:00:43.16 bitrate= 626.8kbits/s speed=0.229x    frame= 1046 fps=5.5 q=34.0 size=    4909kB time=00:00:43.25 bitrate= 929.8kbits/s speed=0.229x    frame= 1047 fps=5.5 q=32.0 size=    3311kB time=00:00:43.29 bitrate= 626.5kbits/s speed=0.229x    frame= 1050 fps=5.5 q=35.0 size=    4924kB time=00:00:43.41 bitrate= 929.1kbits/s speed=0.228x    frame= 1051 fps=5.5 q=32.0 size=    3324kB time=00:00:43.45 bitrate= 626.5kbits/s speed=0.229x    frame= 1052 fps=5.5 q=34.0 size=    4934kB time=00:00:43.50 bitrate= 929.2kbits/s speed=0.228x    frame= 1053 fps=5.5 q=32.0 size=    3329kB time=00:00:43.54 bitrate= 626.4kbits/s speed=0.228x    frame= 1054 fps=5.5 q=35.0 size=    4943kB time=00:00:43.58 bitrate= 929.1kbits/s speed=0.228x    frame= 1055 fps=5.5 q=32.0 size=    3336kB time=00:00:43.62 bitrate= 626.4kbits/s speed=0.228x    frame= 1056 fps=5.5 q=35.0 size=    4953kB time=00:00:43.66 bitrate= 929.1kbits/s speed=0.227x    frame= 1057 fps=5.5 q=30.0 size=    3342kB time=00:00:43.70 bitrate= 626.4kbits/s speed=0.228x    frame= 1059 fps=5.5 q=31.0 size=    4967kB time=00:00:43.79 bitrate= 929.1kbits/s speed=0.227x    frame= 1060 fps=5.5 q=35.0 size=    3353kB time=00:00:43.83 bitrate= 626.6kbits/s speed=0.228x    frame= 1062 fps=5.5 q=35.0 size=    4980kB time=00:00:43.91 bitrate= 929.0kbits/s speed=0.227x    frame= 1063 fps=5.5 q=33.0 size=    3363kB time=00:00:43.95 bitrate= 626.8kbits/s speed=0.228x    frame= 1064 fps=5.5 q=34.0 size=    5007kB time=00:00:44.00 bitrate= 932.1kbits/s speed=0.227x    [flv @ 0000024f893d69c0] Failed to update header with correct duration.
[flv @ 0000024f893d69c0] Failed to update header with correct filesize.
frame= 1064 fps=5.5 q=-1.0 Lsize=    3397kB time=00:00:44.29 bitrate= 628.4kbits/s speed=0.228x    
video:3376kB audio:0kB subtitle:0kB other streams:0kB global headers:0kB muxing overhead: 0.623914%
[libx264 @ 0000024f88e8a880] frame I:45    Avg QP:28.93  size: 17468
[libx264 @ 0000024f88e8a880] frame P:1019  Avg QP:31.91  size:  2621
[libx264 @ 0000024f88e8a880] mb I  I16..4: 100.0%  0.0%  0.0%
[libx264 @ 0000024f88e8a880] mb P  I16..4:  2.2%  0.0%  0.0%  P16..4: 36.2%  0.0%  0.0%  0.0%  0.0%    skip:61.6%
[libx264 @ 0000024f88e8a880] coded y,uvDC,uvAC intra: 56.9% 31.3% 7.4% inter: 16.7% 1.9% 0.1%
[libx264 @ 0000024f88e8a880] i16 v,h,dc,p: 29% 31% 24% 17%
[libx264 @ 0000024f88e8a880] i8c dc,h,v,p: 52% 22% 21%  6%
[libx264 @ 0000024f88e8a880] kb/s:623.78
Exiting normally, received signal 15.
GPU...
step000 ------>  size:640x320 fps:24.0 total_frame: 495
Traceback (most recent call last):
  File "E:\ideaGitPro\algorithmCenter\data\windows\algcenter\yolo\onnx_infer\yolov8_detect_onnx.py", line 458, in <module>
    main(args)
  File "E:\ideaGitPro\algorithmCenter\data\windows\algcenter\yolo\onnx_infer\yolov8_detect_onnx.py", line 429, in main
    pipe_ori.stdin.write(frame.tobytes())
BrokenPipeError: [Errno 32] Broken pipe
